<svg width="616" height="105" viewBox="0 0 616 105" fill="none" xmlns="http://www.w3.org/2000/svg">
<rect width="616" height="73" fill="url(#paint0_linear_41_2104)"/>
<path d="M401 0H0V73H272.734L401 0Z" fill="url(#paint1_linear_41_2104)"/>
<mask id="mask0_41_2104" style="mask-type:alpha" maskUnits="userSpaceOnUse" x="0" y="0" width="616" height="73">
<rect width="616" height="73" fill="url(#paint2_linear_41_2104)"/>
</mask>
<g mask="url(#mask0_41_2104)">
<g filter="url(#filter0_f_41_2104)">
<circle cx="-202.5" cy="-177.5" r="250.5" fill="#FF012E"/>
</g>
<g filter="url(#filter1_f_41_2104)">
<circle cx="816.5" cy="-177.5" r="250.5" fill="#01C2FF"/>
</g>
</g>
<rect width="73" height="73" fill="#FF012E"/>
<rect x="543" width="73" height="73" fill="#01C2FF"/>
<path fill-rule="evenodd" clip-rule="evenodd" d="M307.534 51.4896L305.03 46.5052L305.817 29.5486L302.573 28.9762L302.573 27.2591L306.031 27.3306L306.365 24.0395C305.769 23.3955 305.769 22.3462 306.389 21.7261C307.033 21.0822 308.082 21.0822 308.726 21.7261C309.346 22.3462 309.37 23.324 308.822 23.9679L309.084 27.2352L312.566 27.3306L312.542 29.0716L309.275 29.5724L310.038 46.3144L307.534 51.4896Z" fill="white"/>
<rect x="73" y="73" width="470" height="32" fill="url(#paint3_linear_41_2104)"/>
<defs>
<filter id="filter0_f_41_2104" x="-753" y="-728" width="1101" height="1101" filterUnits="userSpaceOnUse" color-interpolation-filters="sRGB">
<feFlood flood-opacity="0" result="BackgroundImageFix"/>
<feBlend mode="normal" in="SourceGraphic" in2="BackgroundImageFix" result="shape"/>
<feGaussianBlur stdDeviation="150" result="effect1_foregroundBlur_41_2104"/>
</filter>
<filter id="filter1_f_41_2104" x="266" y="-728" width="1101" height="1101" filterUnits="userSpaceOnUse" color-interpolation-filters="sRGB">
<feFlood flood-opacity="0" result="BackgroundImageFix"/>
<feBlend mode="normal" in="SourceGraphic" in2="BackgroundImageFix" result="shape"/>
<feGaussianBlur stdDeviation="150" result="effect1_foregroundBlur_41_2104"/>
</filter>
<linearGradient id="paint0_linear_41_2104" x1="308" y1="73" x2="308" y2="-8.01513e-06" gradientUnits="userSpaceOnUse">
<stop stop-color="#0E0B13"/>
<stop offset="1" stop-color="#20192B"/>
</linearGradient>
<linearGradient id="paint1_linear_41_2104" x1="338.294" y1="112.42" x2="338.294" y2="-29.2" gradientUnits="userSpaceOnUse">
<stop/>
<stop offset="1" stop-color="#382B4A" stop-opacity="0.67"/>
</linearGradient>
<linearGradient id="paint2_linear_41_2104" x1="308" y1="73" x2="308" y2="-8.01513e-06" gradientUnits="userSpaceOnUse">
<stop stop-color="#100324"/>
<stop offset="1" stop-color="#280E4E"/>
</linearGradient>
<linearGradient id="paint3_linear_41_2104" x1="308" y1="73" x2="308" y2="105" gradientUnits="userSpaceOnUse">
<stop offset="0.328571" stop-color="#100D15" stop-opacity="0.8"/>
<stop offset="1" stop-color="#0E0B13" stop-opacity="0"/>
</linearGradient>
</defs>
</svg>
